<svg width="27" height="4" viewBox="0 0 27 4" fill="none" xmlns="http://www.w3.org/2000/svg">
<path opacity="0.7" d="M0.666667 2C0.666667 2.73638 1.26362 3.33333 2 3.33333C2.73638 3.33333 3.33333 2.73638 3.33333 2C3.33333 1.26362 2.73638 0.666667 2 0.666667C1.26362 0.666667 0.666667 1.26362 0.666667 2ZM26.5 2.25C26.6381 2.25 26.75 2.13807 26.75 2C26.75 1.86193 26.6381 1.75 26.5 1.75V2.25ZM3.02083 2.25C3.1589 2.25 3.27083 2.13807 3.27083 2C3.27083 1.86193 3.1589 1.75 3.02083 1.75V2.25ZM5.0625 1.75C4.92443 1.75 4.8125 1.86193 4.8125 2C4.8125 2.13807 4.92443 2.25 5.0625 2.25V1.75ZM7.10417 2.25C7.24224 2.25 7.35417 2.13807 7.35417 2C7.35417 1.86193 7.24224 1.75 7.10417 1.75V2.25ZM9.14583 1.75C9.00776 1.75 8.89583 1.86193 8.89583 2C8.89583 2.13807 9.00776 2.25 9.14583 2.25V1.75ZM11.1875 2.25C11.3256 2.25 11.4375 2.13807 11.4375 2C11.4375 1.86193 11.3256 1.75 11.1875 1.75V2.25ZM13.2292 1.75C13.0911 1.75 12.9792 1.86193 12.9792 2C12.9792 2.13807 13.0911 2.25 13.2292 2.25V1.75ZM15.2708 2.25C15.4089 2.25 15.5208 2.13807 15.5208 2C15.5208 1.86193 15.4089 1.75 15.2708 1.75V2.25ZM17.3125 1.75C17.1744 1.75 17.0625 1.86193 17.0625 2C17.0625 2.13807 17.1744 2.25 17.3125 2.25V1.75ZM19.3542 2.25C19.4922 2.25 19.6042 2.13807 19.6042 2C19.6042 1.86193 19.4922 1.75 19.3542 1.75V2.25ZM21.3958 1.75C21.2578 1.75 21.1458 1.86193 21.1458 2C21.1458 2.13807 21.2578 2.25 21.3958 2.25V1.75ZM23.4375 2.25C23.5756 2.25 23.6875 2.13807 23.6875 2C23.6875 1.86193 23.5756 1.75 23.4375 1.75V2.25ZM25.4792 1.75C25.3411 1.75 25.2292 1.86193 25.2292 2C25.2292 2.13807 25.3411 2.25 25.4792 2.25V1.75ZM2 2.25H3.02083V1.75H2V2.25ZM5.0625 2.25H7.10417V1.75H5.0625V2.25ZM9.14583 2.25H11.1875V1.75H9.14583V2.25ZM13.2292 2.25H15.2708V1.75H13.2292V2.25ZM17.3125 2.25H19.3542V1.75H17.3125V2.25ZM21.3958 2.25H23.4375V1.75H21.3958V2.25ZM25.4792 2.25H26.5V1.75H25.4792V2.25Z" fill="#666666"/>
</svg>
