<svg width="255" height="48" viewBox="0 0 255 48" fill="none" xmlns="http://www.w3.org/2000/svg">
<path d="M6.77575 45C5.11175 45 3.87975 44.504 3.07975 43.512C2.27975 42.52 1.87975 41.192 1.87975 39.528V17.16C1.87975 14.728 2.53575 12.936 3.84775 11.784C5.19175 10.632 6.79175 10.056 8.64775 10.056C10.4078 10.056 11.8958 10.632 13.1118 11.784C14.3598 12.936 15.2718 14.76 15.8478 17.256L19.5918 33.528H20.8398L24.5837 17.256C25.1597 14.76 26.0718 12.936 27.3198 11.784C28.5998 10.632 30.1198 10.056 31.8798 10.056C33.7358 10.056 35.3198 10.632 36.6318 11.784C37.9758 12.936 38.6478 14.728 38.6478 17.16V39.528C38.6478 41.192 38.2318 42.52 37.3998 43.512C36.5998 44.504 35.3678 45 33.7038 45C32.1038 45 30.8718 44.504 30.0078 43.512C29.1438 42.52 28.7118 41.192 28.7118 39.528V26.616C28.7118 26.296 28.6638 26.008 28.5677 25.752C28.5038 25.464 28.2958 25.32 27.9438 25.32C27.6558 25.32 27.4478 25.464 27.3198 25.752C27.1918 26.008 27.0958 26.296 27.0318 26.616L25.2078 38.712C24.9838 40.024 24.7118 41.16 24.3918 42.12C24.1038 43.048 23.6398 43.768 22.9998 44.28C22.3598 44.76 21.4318 45 20.2158 45C19.0318 45 18.1038 44.76 17.4318 44.28C16.7918 43.768 16.3118 43.048 15.9918 42.12C15.7038 41.16 15.4638 40.024 15.2718 38.712L13.3998 26.616C13.3678 26.296 13.2878 26.008 13.1598 25.752C13.0318 25.464 12.8078 25.32 12.4878 25.32C12.1678 25.32 11.9598 25.464 11.8638 25.752C11.7678 26.008 11.7198 26.296 11.7198 26.616V39.528C11.7198 41.192 11.2878 42.52 10.4238 43.512C9.59175 44.504 8.37575 45 6.77575 45ZM53.5795 45.096C49.8355 45.096 46.8435 43.992 44.6035 41.784C42.3955 39.544 41.2915 36.392 41.2915 32.328C41.2915 29.832 41.8035 27.64 42.8275 25.752C43.8515 23.864 45.2755 22.392 47.0995 21.336C48.9555 20.248 51.1155 19.704 53.5795 19.704C56.3315 19.704 58.6195 20.248 60.4435 21.336C62.2675 22.392 63.6275 23.864 64.5235 25.752C65.4515 27.64 65.9155 29.832 65.9155 32.328C65.9155 36.392 64.8915 39.544 62.8435 41.784C60.8275 43.992 57.7395 45.096 53.5795 45.096ZM47.0035 31.512C47.0035 32.504 47.4995 33.208 48.4915 33.624C49.4835 34.008 51.1795 34.2 53.5795 34.2C55.9795 34.2 57.6755 34.008 58.6675 33.624C59.6595 33.208 60.1555 32.504 60.1555 31.512C60.1555 30.552 59.6595 29.88 58.6675 29.496C57.6755 29.112 55.9795 28.92 53.5795 28.92C51.1795 28.92 49.4835 29.112 48.4915 29.496C47.4995 29.88 47.0035 30.552 47.0035 31.512ZM80.3451 45.096C76.6011 45.096 73.6091 43.992 71.3691 41.784C69.1611 39.544 68.0571 36.392 68.0571 32.328C68.0571 29.832 68.5691 27.64 69.5931 25.752C70.6171 23.864 72.0411 22.392 73.8651 21.336C75.7211 20.248 77.8811 19.704 80.3451 19.704C83.0971 19.704 85.3851 20.248 87.2091 21.336C89.0331 22.392 90.3931 23.864 91.2891 25.752C92.2171 27.64 92.6811 29.832 92.6811 32.328C92.6811 36.392 91.6571 39.544 89.6091 41.784C87.5931 43.992 84.5051 45.096 80.3451 45.096ZM73.7691 31.512C73.7691 32.504 74.2651 33.208 75.2571 33.624C76.2491 34.008 77.9451 34.2 80.3451 34.2C82.7451 34.2 84.4411 34.008 85.4331 33.624C86.4251 33.208 86.9211 32.504 86.9211 31.512C86.9211 30.552 86.4251 29.88 85.4331 29.496C84.4411 29.112 82.7451 28.92 80.3451 28.92C77.9451 28.92 76.2491 29.112 75.2571 29.496C74.2651 29.88 73.7691 30.552 73.7691 31.512ZM103.559 45C97.7348 45 94.8228 40.712 94.8228 32.136C94.8228 28.424 95.5428 25.464 96.9828 23.256C98.4228 21.016 100.583 19.896 103.463 19.896C105.031 19.896 106.295 20.216 107.255 20.856C108.247 21.496 109.015 22.376 109.559 23.496C110.135 24.584 110.551 25.848 110.807 27.288L110.951 27.24V12.696C110.951 11.384 111.335 10.28 112.103 9.384C112.903 8.456 114.055 7.992 115.559 7.992C117.031 7.992 118.119 8.456 118.823 9.384C119.559 10.28 119.927 11.416 119.927 12.792V34.392C119.927 35.48 120.007 36.488 120.167 37.416C120.359 38.312 120.503 39.208 120.599 40.104C120.695 41.32 120.439 42.376 119.831 43.272C119.255 44.136 118.215 44.696 116.711 44.952C114.759 45.272 113.303 44.936 112.343 43.944C111.415 42.952 110.951 41.48 110.951 39.528V37.752H110.039C110.039 40.088 109.447 41.88 108.263 43.128C107.111 44.376 105.543 45 103.559 45ZM102.839 31.704C102.839 32.696 103.143 33.432 103.751 33.912C104.359 34.392 105.447 34.632 107.015 34.632C108.615 34.632 109.719 34.392 110.327 33.912C110.935 33.432 111.239 32.696 111.239 31.704C111.239 30.68 110.935 29.944 110.327 29.496C109.751 29.016 108.663 28.776 107.063 28.776C105.463 28.776 104.359 29.016 103.751 29.496C103.143 29.944 102.839 30.68 102.839 31.704ZM122.713 14.328C122.713 12.952 123.129 11.848 123.961 11.016C124.825 10.152 126.009 9.72 127.513 9.72C129.113 9.72 130.297 10.136 131.065 10.968C131.865 11.8 132.265 12.904 132.265 14.28C132.265 15.624 131.865 16.712 131.065 17.544C130.297 18.344 129.113 18.744 127.513 18.744C125.945 18.744 124.745 18.344 123.913 17.544C123.113 16.712 122.713 15.64 122.713 14.328ZM127.513 45C126.009 45 124.889 44.584 124.153 43.752C123.417 42.92 123.049 41.88 123.049 40.632V24.216C123.049 22.84 123.417 21.752 124.153 20.952C124.889 20.152 126.009 19.752 127.513 19.752C129.017 19.752 130.137 20.152 130.873 20.952C131.641 21.752 132.025 22.808 132.025 24.12V40.632C132.025 41.88 131.625 42.92 130.825 43.752C130.057 44.584 128.953 45 127.513 45ZM139.183 45C137.743 45 136.591 44.584 135.727 43.752C134.895 42.888 134.479 41.832 134.479 40.584V24.696C134.479 23.352 134.879 22.216 135.679 21.288C136.511 20.36 137.679 19.896 139.183 19.896C140.655 19.896 141.759 20.36 142.495 21.288C143.231 22.216 143.599 23.384 143.599 24.792V27.192H144.463C144.463 24.472 145.039 22.584 146.191 21.528C147.343 20.44 148.767 19.896 150.463 19.896C152.639 19.896 154.239 20.568 155.263 21.912C156.287 23.256 156.799 25.016 156.799 27.192H157.663C157.663 25.368 157.967 23.928 158.575 22.872C159.183 21.816 159.951 21.064 160.879 20.616C161.839 20.136 162.831 19.896 163.855 19.896C165.935 19.896 167.455 20.392 168.415 21.384C169.407 22.376 170.047 23.704 170.335 25.368C170.623 27.032 170.767 28.904 170.767 30.984V40.584C170.767 41.832 170.335 42.888 169.471 43.752C168.639 44.584 167.519 45 166.111 45C164.703 45 163.567 44.584 162.703 43.752C161.839 42.888 161.407 41.832 161.407 40.584V32.088C161.407 30.936 161.263 30.04 160.975 29.4C160.687 28.76 160.111 28.44 159.247 28.44C158.319 28.44 157.711 28.792 157.423 29.496C157.167 30.2 157.039 31.096 157.039 32.184V40.584C157.039 41.832 156.639 42.888 155.839 43.752C155.039 44.584 153.935 45 152.527 45C151.087 45 149.935 44.584 149.071 43.752C148.239 42.888 147.823 41.832 147.823 40.584V32.088C147.823 30.936 147.679 30.04 147.391 29.4C147.103 28.76 146.543 28.44 145.711 28.44C144.783 28.44 144.191 28.792 143.935 29.496C143.711 30.2 143.599 31.096 143.599 32.184V40.584C143.599 41.832 143.215 42.888 142.447 43.752C141.679 44.584 140.591 45 139.183 45ZM180.353 45C177.985 45 176.129 44.36 174.785 43.08C173.473 41.8 172.817 40.008 172.817 37.704C172.817 35.4 173.585 33.736 175.121 32.712C176.657 31.656 178.625 31.128 181.025 31.128C182.433 31.128 183.713 31.224 184.865 31.416C186.017 31.608 187.057 31.88 187.985 32.232H188.129V31.512C188.129 30.776 187.857 30.2 187.313 29.784C186.769 29.336 186.081 29.128 185.249 29.16C184.449 29.16 183.761 29.208 183.185 29.304C182.641 29.4 181.953 29.56 181.121 29.784C179.585 30.168 178.257 30.136 177.137 29.688C176.017 29.24 175.249 28.36 174.833 27.048C174.449 25.672 174.529 24.52 175.073 23.592C175.649 22.664 176.513 21.944 177.665 21.432C178.657 20.952 179.761 20.552 180.977 20.232C182.225 19.912 183.569 19.752 185.009 19.752C189.201 19.752 192.273 20.776 194.225 22.824C196.209 24.84 197.201 28.232 197.201 33V40.44C197.201 41.752 196.801 42.84 196.001 43.704C195.201 44.568 194.097 45 192.689 45C191.153 45 190.001 44.568 189.233 43.704C188.497 42.84 188.129 41.784 188.129 40.536V39.432H187.169C187.169 40.264 187.009 41.112 186.689 41.976C186.401 42.84 185.777 43.56 184.817 44.136C183.889 44.712 182.401 45 180.353 45ZM180.833 34.488C180.833 35.032 181.025 35.416 181.409 35.64C181.825 35.864 182.705 35.976 184.049 35.976C185.265 35.976 186.113 35.864 186.593 35.64C187.073 35.416 187.313 35.032 187.313 34.488C187.313 33.976 187.073 33.624 186.593 33.432C186.113 33.208 185.265 33.096 184.049 33.096C182.705 33.096 181.825 33.208 181.409 33.432C181.025 33.624 180.833 33.976 180.833 34.488ZM204.199 45C202.631 45 201.447 44.584 200.647 43.752C199.879 42.92 199.495 41.88 199.495 40.632V12.792C199.495 11.416 199.879 10.28 200.647 9.384C201.447 8.456 202.631 7.992 204.199 7.992C205.607 7.992 206.695 8.456 207.463 9.384C208.231 10.28 208.615 11.384 208.615 12.696V40.632C208.615 41.88 208.231 42.92 207.463 43.752C206.695 44.584 205.607 45 204.199 45ZM223.126 45.624C220.918 45.624 218.87 45.416 216.982 45C215.126 44.552 213.638 43.864 212.518 42.936C211.398 41.976 210.838 40.712 210.838 39.144C210.838 37.768 211.254 36.632 212.086 35.736C212.918 34.84 214.022 34.392 215.398 34.392C216.262 34.392 217.126 34.536 217.99 34.824C218.886 35.08 219.83 35.336 220.822 35.592C221.814 35.848 222.886 35.976 224.038 35.976C225.062 35.976 225.75 35.928 226.102 35.832C226.454 35.704 226.63 35.48 226.63 35.16C226.63 34.776 226.406 34.52 225.958 34.392C225.542 34.264 224.822 34.104 223.798 33.912L220.342 33.24C218.902 32.952 217.494 32.584 216.118 32.136C214.774 31.656 213.654 30.952 212.758 30.024C211.894 29.096 211.462 27.832 211.462 26.232C211.462 24.056 212.422 22.36 214.342 21.144C216.294 19.928 219.11 19.32 222.79 19.32C224.902 19.32 226.79 19.528 228.454 19.944C230.15 20.36 231.494 20.984 232.486 21.816C233.478 22.616 233.974 23.624 233.974 24.84C234.006 26.152 233.654 27.208 232.918 28.008C232.182 28.808 231.254 29.208 230.134 29.208C229.334 29.208 228.518 29.112 227.686 28.92C226.886 28.696 226.006 28.472 225.046 28.248C224.118 27.992 223.046 27.848 221.83 27.816C220.966 27.752 220.262 27.8 219.718 27.96C219.174 28.12 218.902 28.376 218.902 28.728C218.902 29.112 219.222 29.384 219.862 29.544C220.502 29.672 221.462 29.848 222.742 30.072L226.15 30.696C228.23 31.048 229.878 31.496 231.094 32.04C232.342 32.552 233.238 33.272 233.782 34.2C234.326 35.128 234.598 36.408 234.598 38.04C234.598 39.736 234.102 41.16 233.11 42.312C232.15 43.432 230.806 44.264 229.078 44.808C227.35 45.352 225.366 45.624 223.126 45.624Z" fill="#1B1818"/>
<circle cx="6.46891" cy="6.46891" r="6.46891" transform="matrix(1 0 0 -1 242 44.938)" fill="#FF794C"/>
</svg>
